<svg width="16" height="12" fill="none" xmlns="http://www.w3.org/2000/svg"><path fill-rule="evenodd" clip-rule="evenodd" d="M12.25 2.217c1.078.998 1.744 2.387 1.744 3.906 0 2.54-1.855 4.688-4.377 5.34l.46.537h3.79C15.191 10.68 16 8.908 16 6.974 16 3.767 13.78 1.028 10.688 0L8 8.286 5.312 0C2.22 1.028 0 3.767 0 6.974 0 8.908.809 10.68 2.133 12h3.782l.468-.537h-.008c-2.522-.652-4.377-2.8-4.377-5.34 0-1.52.666-2.9 1.744-3.906.103-.115.31-.176.508-.145.198.038.388.168.483.452L7.7 11.662c.095.008.198.008.301.008.103 0 .198 0 .301-.008l2.966-9.145a.657.657 0 01.444-.438.634.634 0 01.539.138z" fill="#fff"/></svg>