<svg width="14" height="14" fill="none" xmlns="http://www.w3.org/2000/svg"><path d="M14 10.482v2.107a1.403 1.403 0 01-.957 1.337 1.41 1.41 0 01-.578.068 13.95 13.95 0 01-6.075-2.156 13.714 13.714 0 01-4.223-4.216 13.885 13.885 0 01-2.161-6.09A1.402 1.402 0 01.839.12 1.41 1.41 0 011.407 0h2.111a1.41 1.41 0 011.408 1.208 9.06 9.06 0 00.493 1.974 1.402 1.402 0 01-.317 1.483l-.894.892a11.252 11.252 0 004.224 4.215l.894-.892a1.409 1.409 0 011.485-.316 9.054 9.054 0 001.978.492 1.408 1.408 0 011.21 1.426z" fill="#11D081"/></svg>