<svg width="140" height="38" fill="none" xmlns="http://www.w3.org/2000/svg"><path d="M0 30.676a.866.866 0 00.166-.22.694.694 0 01.166-.277c.258-.258.644-.497 1.16-.719.516-.258 1.235-.423 2.156-.497.884-6.338 2.137-11.755 3.759-16.25 1.658-4.496 3.39-8.291 5.195-11.386.074-.111.13-.203.166-.277l.221-.331c.147-.222.295-.387.442-.498A.75.75 0 0113.984 0c.295 0 .663.11 1.105.332.48.22 1.124.552 1.935.995.184.11.35.24.497.386.148.111.277.222.387.332.516.48.866.977 1.05 1.492.222.516.406 1.124.553 1.824a23.59 23.59 0 01.221 1.327c.774 4.164 1.4 7.628 1.88 10.391.516 2.764.976 5.122 1.382 7.075.184.848.368 1.64.552 2.377.221.737.442 1.437.663 2.1.332.11.59.406.774.885.221.442.369.94.442 1.492v.442c.037.148.056.295.056.442 0 .406-.037.774-.11 1.106-.074.332-.185.571-.332.718-.037.59-.24 1.032-.609 1.327-.331.258-.976.46-1.934.608h-.166c-.073 0-.129.018-.166.055h-.386c-.59 0-1.106-.129-1.548-.387-.405-.22-.756-.57-1.05-1.05h-1.216a42.172 42.172 0 00-4.201.221c-.774.074-1.53.166-2.266.276a27.5 27.5 0 00-2.045.277 69.21 69.21 0 00-1.77.221 3.102 3.102 0 01-.607.055c-.221.037-.424.074-.608.11h-.663a3.716 3.716 0 01-.608.056c-.7 0-1.327-.074-1.88-.221-.552-.11-.94-.313-1.16-.608a14.221 14.221 0 01-.387-.442 8.207 8.207 0 01-.608-.94 3.61 3.61 0 00-.221-.387c-.11-.11-.203-.24-.277-.387a15.665 15.665 0 01-.387-.829c-.147-.294-.22-.552-.22-.773L0 30.675zm10.28-1.602c1.106-.074 2.009-.13 2.71-.166l2.044-.11h2.376c-.515-2.949-.865-5.657-1.05-8.126a428.567 428.567 0 01-.441-6.633c-.037-.847-.148-1.455-.332-1.824-.147-.405-.313-.608-.498-.608-.036 0-.11.037-.22.11a.867.867 0 00-.222.167l-.11.11a.642.642 0 00-.11.166 57.569 57.569 0 01-.775 1.603c-.258.59-.515 1.216-.773 1.88-.664 1.657-1.272 3.555-1.824 5.692-.553 2.137-.83 4.404-.83 6.799v.22a.49.49 0 00.056.222v.497zm32.417.828a.616.616 0 01.055.277c.037.11.074.203.11.276.038.148.056.295.056.443.037.147.055.276.055.386 0 .995-.405 1.788-1.216 2.377a9.139 9.139 0 01-2.542 1.271c-.553.11-1.106.203-1.659.277a9.59 9.59 0 01-1.326.11c-2.1 0-3.906-.645-5.417-1.934-1.51-1.29-2.69-3.077-3.537-5.362a28.373 28.373 0 01-.498-1.658c-.11-.59-.202-1.18-.276-1.769a47.877 47.877 0 01-.11-.829v-1.049c.036-3.096.884-5.933 2.542-8.513 1.695-2.58 3.998-3.869 6.91-3.869.33 0 .68.055 1.05.166.368.073.736.202 1.105.387a9.99 9.99 0 012.376 1.603c.774.663 1.364 1.345 1.77 2.045.11.184.202.368.275.552l.222.443c.22.59.386 1.179.497 1.768.11.553.166 1.087.166 1.603 0 1.548-.405 2.82-1.216 3.814-.81.958-1.714 1.713-2.709 2.266-.847.48-1.64.81-2.376.995-.737.184-1.216.276-1.437.276-.184 0-.387-.055-.608-.165a5.434 5.434 0 01-.719-.442 5.023 5.023 0 01-.553-.387 6.055 6.055 0 00-.442-.498 5.038 5.038 0 00-.718-.774c-.221-.184-.406-.276-.553-.276-.037 0-.092.037-.166.11a.77.77 0 00-.055.332c0 .184.018.46.055.83.074.33.166.736.276 1.215.295 1.474.737 2.487 1.327 3.04.59.516 1.234.774 1.935.774.331 0 .663-.037.995-.11.368-.074.736-.166 1.105-.277.147-.074.313-.129.497-.166l.553-.22c.11-.038.203-.074.276-.111l.332-.11c.369-.111.7-.203.995-.277.332-.11.645-.166.94-.166.368 0 .7.092.995.276.294.185.516.535.663 1.05zm-6.246-9.396c.184-.147.35-.295.498-.442a5 5 0 00.386-.553 2.9 2.9 0 00.277-.442c.073-.184.129-.35.166-.497.037-.185.073-.35.11-.498l.11-.553c.038-.147.056-.294.056-.442.037-.184.055-.368.055-.553a1.82 1.82 0 00-.608-1.27c-.331-.332-.7-.517-1.105-.553h-.166c-.11 0-.221.018-.332.055a.614.614 0 00-.276.055 2.79 2.79 0 00-.663.332c-.184.11-.369.276-.553.497-.663 1.18-1.18 2.248-1.548 3.206-.368.921-.552 1.677-.552 2.266 0 .369.073.663.22.884.185.185.424.277.72.277.33 0 .773-.147 1.326-.442.552-.295 1.179-.737 1.88-1.327zm15.691 2.045a90.875 90.875 0 01-.165 3.317 79.438 79.438 0 00-.056 2.819v1.381c.037.406.074.774.11 1.106v.442c.038.11.056.221.056.332.037.331.055.626.055.884.037.258.056.498.056.718 0 .553-.092.959-.277 1.217a.891.891 0 01-.718.331c-.258 0-.59-.073-.995-.22a26.879 26.879 0 01-1.382-.554c-.442-.258-.81-.479-1.105-.663a19.48 19.48 0 01-.774-.608c-.295-.295-.498-.59-.608-.884-.11-.332-.166-.737-.166-1.216v-.221a.49.49 0 01.055-.221v-.498l.11-1.824c.038-.626.075-1.216.111-1.769l.11-1.713.111-1.713c-.552-.406-.976-.774-1.27-1.106-.296-.369-.443-.682-.443-.94 0-.294.166-.57.498-.829.331-.294.81-.57 1.437-.829.036-.626.055-1.29.055-1.99v-5.858c0-.037-.019-.074-.055-.111v-.221L46.78 11v-.608c.037-.222.129-.424.276-.609.148-.184.406-.276.774-.276.184 0 .387.018.608.055.258.037.535.11.83.221.33.148.626.277.884.387.258.074.479.166.663.277.405.22.718.46.94.718.22.258.405.645.552 1.16v.498c.037.184.074.406.11.663v.885c.038.295.056.645.056 1.05 0 .442-.018.94-.055 1.492 0 .553-.037 1.161-.11 1.825a27.49 27.49 0 011.879-.166c.7-.037 1.437-.056 2.21-.056.222-.036.424-.055.608-.055h.608v-.165h-.055v-1.217c.037-.368.074-.755.11-1.16v-.222c0-.11.02-.22.056-.331 0-.442.018-.884.055-1.327.037-.479.056-.902.056-1.271v-.884c0-.148-.019-.277-.056-.387l-.055-.056v-.165l-.055-.056v-.221c.037-.258.129-.479.276-.663.148-.184.406-.276.774-.276.147 0 .313.018.497.055.185 0 .406.055.664.166.147.073.35.184.608.331.294.11.59.24.884.387.442.221.848.498 1.216.83.369.294.553.589.553.884v.11a40.3 40.3 0 00-.277 2.653c-.037.995-.073 2.064-.11 3.206a29 29 0 01-.055 1.769c0 .59-.019 1.18-.056 1.769 0 .147-.018.294-.055.442v.387l-.11 1.547v1.438c0 1.068.036 2.063.11 2.984.074.884.147 1.658.221 2.322.037.442.074.829.11 1.16.074.332.13.608.166.83v.165c.037.037.056.074.056.11.037.148.055.296.055.443v.387c0 .442-.11.774-.332.995-.22.22-.552.331-.995.331-.22 0-.497-.036-.829-.11a7.838 7.838 0 01-.994-.332 3.036 3.036 0 01-.387-.166 1.042 1.042 0 00-.332-.055c-.81-.368-1.382-.829-1.714-1.382-.294-.59-.442-1.658-.442-3.206v-1.216c.037-.442.074-.902.11-1.381.038-.258.056-.553.056-.885V22a1.82 1.82 0 00-.442.055h-.387c-.147 0-.295.018-.442.055h-.885c-.442.037-.92.092-1.437.166a9.771 9.771 0 00-1.602.276zM78.78 10.004c.516 0 .921.037 1.216.11.332.075.645.204.94.388.258.22.516.497.773.829.258.332.59.792.995 1.382.111.147.185.313.222.497a.89.89 0 01.11.387c0 .258-.147.46-.442.608-.295.11-.774.203-1.437.277l-.995.11c-.295 0-.59.018-.885.055a8.773 8.773 0 00-1.105.166 7.766 7.766 0 01-.829.055c-.368.037-.59.11-.663.221-.074.074-.13.277-.166.608v.719c0 .147-.019.313-.055.497 0 .148-.019.332-.056.553v.719c-.037.258-.073.534-.11.829v.94c0 .589.018 1.252.055 1.99.074.7.148 1.473.221 2.32v.498c-.037.11-.055.221-.055.332v.22c0 1.364.074 2.599.221 3.704.147 1.106.313 1.99.497 2.653v.221l.111.222c.258.7.442 1.29.553 1.768.11.48.165.848.165 1.106 0 .258-.055.423-.165.497-.11.11-.295.166-.553.166a2.37 2.37 0 01-.608-.11c-.221-.037-.48-.093-.774-.166a12.62 12.62 0 00-1.216-.443c-.368-.147-.7-.294-.995-.442-1.326-.663-2.119-1.437-2.376-2.321-.258-.921-.406-2.432-.443-4.533v-1.05c0-.81.019-1.658.056-2.542l.11-2.764c.037-.663.092-1.327.166-1.99.074-.663.147-1.308.221-1.934v-.332c0-.332-.11-.608-.332-.83a.897.897 0 00-.773-.386h-.277a8.253 8.253 0 00-.829.166 25.79 25.79 0 01-.829.22c-.074.038-.147.075-.221.111h-.166c-.442.148-.884.277-1.326.387-.443.11-.793.166-1.05.166h-.056v-.055h-.055c-.405-.037-.719-.277-.94-.719a3.648 3.648 0 01-.331-1.547c0-.11.018-.221.055-.332v-.387c.037-.295.129-.59.276-.884.11-.332.24-.59.387-.774.369-.479.958-.81 1.769-.995.81-.184 1.88-.35 3.206-.497h.552l.553-.11c.221-.038.516-.075.885-.111a56.33 56.33 0 011.27-.111c.332-.037.683-.074 1.051-.11l1.105-.111a24.146 24.146 0 011.603-.055 19.57 19.57 0 011.382-.056h.387zM95.326 33.33a5.601 5.601 0 01-1.602 1.215 4.916 4.916 0 01-1.714.553h-1.382c-1.29-.184-2.524-.792-3.703-1.824-1.142-1.032-2.008-2.395-2.598-4.09a26.573 26.573 0 01-.829-2.93 13.97 13.97 0 01-.332-3.04v-1.05a9.15 9.15 0 01.166-1.05c.258-1.658.885-3.28 1.88-4.864 1.031-1.621 2.542-3.132 4.532-4.532.11-.11.221-.203.332-.277.147-.073.294-.165.442-.276a7.06 7.06 0 01.94-.442c.331-.148.626-.221.884-.221h.11a.49.49 0 01.221.055c.037 0 .074.018.11.055h.167c.663.48 1.179.848 1.547 1.106.406.258.7.387.885.387.184 0 .331-.11.442-.332.11-.221.184-.516.221-.884v-.221c-.037-.037-.055-.074-.055-.11v-.056c0-.405.11-.7.331-.885a1.1 1.1 0 01.719-.276c.184 0 .387.037.608.11.221.074.442.166.663.277a2.2 2.2 0 01.553.332c.221.11.405.22.553.331.442.258.81.498 1.105.719.295.22.534.424.719.608.147.184.258.368.331.553.074.184.111.386.111.607 0 .148-.019.332-.055.553-.037.221-.074.46-.111.719a2.137 2.137 0 00-.111.276v.277c-.221.773-.405 1.713-.552 2.819a25.81 25.81 0 00-.221 3.426v1.603c.037.516.073 1.05.11 1.603.148 1.511.369 3.022.663 4.532.295 1.474.645 2.783 1.051 3.925.036.037.055.092.055.166a.42.42 0 01.055.166l.111.331.11.221c.074.295.129.571.166.83.074.257.111.478.111.663 0 .258-.074.46-.221.608-.148.184-.369.276-.664.276-.073 0-.387-.018-.939-.055a6.856 6.856 0 01-1.659-.221 8.074 8.074 0 01-1.602-.498c-.48-.22-.793-.534-.94-.94-.148-.515-.295-.884-.442-1.105-.148-.221-.295-.331-.442-.331-.111 0-.24.055-.387.165l-.443.443zm-.055-15.808v-.277c0-.332-.11-.626-.331-.884-.185-.258-.424-.387-.719-.387-.074 0-.184.018-.332.055-.11 0-.22.018-.331.055a.425.425 0 00-.166.056.642.642 0 01-.166.11c-1.142.737-2.008 1.695-2.598 2.874a12.544 12.544 0 00-1.216 3.593c-.037.369-.073.756-.11 1.16a11.1 11.1 0 00-.056 1.106c0 .7.037 1.364.111 1.99.11.627.24 1.16.387 1.603.11.369.295.626.553.774.294.147.59.22.884.22h.221a.49.49 0 00.221-.054c.11 0 .203-.019.277-.056a.907.907 0 01.276-.055.424.424 0 01.166-.055.425.425 0 01.166-.056.693.693 0 00.276-.165 1.81 1.81 0 00.276-.221 5.143 5.143 0 001.216-1.161c.369-.516.645-1.16.83-1.935 0-.294-.02-.608-.056-.94v-.994a8.99 8.99 0 00-.055-.995v-1.05c0-.774.018-1.53.055-2.266.074-.774.148-1.456.221-2.046zM30.38 1.793l-.063.041a.261.261 0 00-.062.031c-.36.235-.712.567-1.057.995a7.789 7.789 0 00-1.057 1.773 5.185 5.185 0 00-.28.86 3.19 3.19 0 00-.073.736.47.47 0 00.042.165.138.138 0 00.114.052c.076 0 .172-.038.29-.114.117-.076.235-.176.352-.3.104-.104.204-.218.3-.342.105-.125.194-.253.27-.384a.858.858 0 01.114-.176.71.71 0 01.135-.124.57.57 0 01.145-.094.422.422 0 01.145-.03.38.38 0 01.363.3.23.23 0 01.01.072c.007.021.01.042.01.063a.23.23 0 01.011.072v.062a.481.481 0 01-.01.094.592.592 0 01-.041.197.737.737 0 01-.032.093 1.796 1.796 0 01-.228.383 4.543 4.543 0 01-.632.684c-.09.076-.18.145-.27.207a2.5 2.5 0 01-.424.25.995.995 0 01-.353.103h-.103c-.484 0-.843-.128-1.078-.384-.235-.262-.352-.618-.352-1.067 0-.249.038-.525.114-.83a6.25 6.25 0 01.424-1.18l.104-.229c.007-.007.01-.013.01-.02a.12.12 0 00.021-.031 1.52 1.52 0 01.052-.114l.062-.125a7.134 7.134 0 011.627-1.917 4.5 4.5 0 01.995-.632c.325-.145.615-.218.87-.218h.063c.02 0 .038.004.052.01a.936.936 0 01.342.073c.145.07.252.193.32.373a1.5 1.5 0 01.115.59v.084a.3.3 0 01-.01.072 1.311 1.311 0 01-.042.239 1.122 1.122 0 01-.062.217 1.13 1.13 0 01-.3.394.689.689 0 01-.457.156h-.093a2 2 0 00-.093-.021.115.115 0 00-.052-.01l-.041-.021a.353.353 0 01-.145-.062c-.035-.028-.052-.06-.052-.094v-.01c.006-.007.01-.014.01-.02v-.011c.007-.007.01-.014.01-.02l.021-.022a.997.997 0 00.02-.072.57.57 0 00.032-.073.406.406 0 00.031-.083.23.23 0 01.031-.072 3.26 3.26 0 00.052-.218.657.657 0 00.031-.186.206.206 0 00-.031-.125c-.02-.027-.052-.041-.093-.041a.08.08 0 00-.032.01.092.092 0 00-.04.01.08.08 0 00-.032.01h-.02zm.343 3.897a.163.163 0 00-.03-.042.321.321 0 01-.021-.062.841.841 0 01-.073-.176 1.528 1.528 0 01-.02-.27v-.103l.02-.125a1.05 1.05 0 01.31-.176c.09-.027.174-.052.25-.072l.093-.021a.369.369 0 00.093-.031.578.578 0 00.197-.125c.07-.062.142-.158.218-.29.704-1.043 1.209-1.748 1.513-2.114.31-.366.563-.55.756-.55a.526.526 0 01.3.094l.042-.55V.985c0-.007.004-.01.01-.01.008-.008.011-.015.011-.022a.243.243 0 01.083-.051.368.368 0 01.135-.021h.052c.22.014.386.076.497.186.11.111.166.329.166.653 0 .422-.104 1.092-.311 2.01-.207.92-.536 2.212-.985 3.877-.02.028-.058.048-.114.062a.605.605 0 01-.165.02 1.258 1.258 0 01-.322-.04 1.713 1.713 0 01-.321-.094 1.125 1.125 0 01-.28-.166.1.1 0 01-.02-.052l.165-.456c.049-.138.094-.269.135-.393l.041-.135.042-.135c.028-.09.055-.183.083-.28.034-.103.066-.214.093-.331a.447.447 0 00.01-.083.169.169 0 00.01-.042c0-.02-.006-.034-.02-.041-.007-.007-.024-.01-.052-.01h-.041a.08.08 0 01-.031.01h-.031l-.85.093a.409.409 0 00-.166.042.273.273 0 00-.104.083c0 .006-.003.013-.01.02v.01c-.18.305-.335.591-.466.86a37.56 37.56 0 00-.373.768.286.286 0 01-.125.114.498.498 0 01-.176.03.957.957 0 01-.135-.01 1.217 1.217 0 01-.145-.051.992.992 0 01-.259-.125 1.116 1.116 0 01-.197-.207l-.03-.031a.092.092 0 01-.011-.042.026.026 0 01-.01-.02v-.052a.402.402 0 00.02-.052l.042-.104.041-.103.041-.104c.014-.034.028-.065.042-.093a6.41 6.41 0 01.176-.384c.07-.13.138-.262.207-.393zm2.166-1.306l-.02.041v.031c0 .007.003.014.01.021.014.007.035.01.062.01h.746c.035-.11.08-.28.135-.507.062-.228.128-.498.197-.809l.02-.124a.942.942 0 00.032-.145v-.02a.047.047 0 00-.01-.032.033.033 0 00-.032-.02c-.007 0-.013.003-.02.01-.007 0-.018.007-.031.02l-.104.104a1.66 1.66 0 00-.104.114c-.09.097-.18.204-.27.321-.082.118-.161.235-.237.353-.076.11-.146.22-.208.331a4.442 4.442 0 00-.166.3zm6.775-2.581l.032-.072a3.67 3.67 0 01.165-.332c.056-.104.114-.186.177-.249a.7.7 0 01.145-.114.275.275 0 01.134-.041c.09 0 .173.062.25.186.075.118.137.308.186.57v.094a.406.406 0 01-.072.27.524.524 0 01-.063.124 1.74 1.74 0 00-.062.114c-.035.055-.07.107-.104.155a.63.63 0 00-.062.114v.02c.007 0 .007 0 0 0v.011c-.083.138-.2.352-.352.643a36.7 36.7 0 00-.467.943c-.055.124-.114.252-.176.383l-.166.394-.02.041-.021.042c-.16.394-.304.774-.436 1.14a5.87 5.87 0 00-.248.943 1.64 1.64 0 01-.052.197 1.939 1.939 0 01-.042.145.213.213 0 01-.082.104.14.14 0 01-.104.041.392.392 0 01-.145-.041 1.104 1.104 0 01-.197-.104 1.156 1.156 0 00-.156-.083 1.652 1.652 0 01-.114-.083.708.708 0 01-.176-.176.474.474 0 01-.062-.249c0-.096.02-.214.062-.352a5.56 5.56 0 01.197-.529 7.66 7.66 0 01.207-.466c.083-.173.17-.363.26-.57a.52.52 0 00.062-.124l.052-.104a.72.72 0 00.03-.093c.014-.035.018-.062.011-.083 0-.062-.024-.104-.073-.125a.339.339 0 00-.186-.041 1.54 1.54 0 00-.228.02 8.738 8.738 0 01-.28.042.67.67 0 00-.342.093.628.628 0 00-.228.322l-.02.041a10.65 10.65 0 00-.229.632c-.09.27-.224.612-.404 1.026l-.083.197a3.48 3.48 0 00-.114.29c-.02.083-.041.152-.062.208a.359.359 0 01-.072.114.1.1 0 01-.073.03.196.196 0 00-.062-.01 2.29 2.29 0 01-.601-.176c-.118-.069-.176-.186-.176-.352 0-.097.02-.218.062-.363.048-.152.117-.335.207-.55l.093-.227c.042-.083.083-.17.125-.26a.416.416 0 00.02-.051.403.403 0 01.021-.052 1.07 1.07 0 01.062-.093.353.353 0 00.042-.093.08.08 0 00.01-.031.092.092 0 00.01-.042.078.078 0 00.01-.031v-.041a.345.345 0 00-.03-.135 2.233 2.233 0 00-.094-.207.09.09 0 00.01-.042v-.062a.38.38 0 00-.01-.093l-.02-.104c0-.007-.004-.014-.01-.02v-.021a.832.832 0 00-.032-.125.699.699 0 01-.01-.114v-.052a.402.402 0 01.02-.051c0-.007.004-.014.011-.021a.12.12 0 01.02-.031.482.482 0 01.094-.073.78.78 0 01.135-.052h.02a.08.08 0 01.032-.01c.145-.02.255-.045.331-.073a.503.503 0 00.218-.186 2.77 2.77 0 00.28-.518 19.221 19.221 0 01.57-1.171c.027-.049.051-.097.072-.145a8.21 8.21 0 00.156-.311c.048-.104.096-.2.145-.29.062-.111.124-.2.186-.27.063-.07.128-.104.197-.104a.388.388 0 01.228.093c.11.153.187.28.228.384a.658.658 0 01.073.27.48.48 0 01-.042.186 1.61 1.61 0 01-.124.238 2.93 2.93 0 00-.218.394.406.406 0 01-.03.083c-.105.2-.198.373-.28.518-.084.145-.142.26-.177.342a.803.803 0 01-.041.104.341.341 0 00-.01.083.14.14 0 00.051.093c.035.014.083.02.145.02.063 0 .145-.006.249-.02.104-.014.228-.03.373-.052a.34.34 0 00.083-.01.48.48 0 01.093-.01.17.17 0 01.052-.01.264.264 0 00.062-.032c.07-.041.163-.17.28-.383.117-.214.349-.646.694-1.296zm3.266 2.653c.02.063.04.16.062.29.027.132.051.27.072.415l.041.28c.021.09.039.17.052.238.035.208.087.408.156.601.076.194.155.38.238.56.048.097.093.19.135.28.048.09.09.176.124.259.014.02.021.041.021.062.007.014.01.028.01.042v.02h-.01v.01a.118.118 0 01-.042.042.25.25 0 01-.114.052.405.405 0 01-.093.041c-.041.021-.09.042-.145.063l-.155.062a.73.73 0 01-.166.041.341.341 0 01-.083.01.341.341 0 01-.083.01h-.073a.511.511 0 01-.165-.05.45.45 0 01-.135-.125c-.166-.235-.307-.563-.425-.985a6.478 6.478 0 01-.197-1.326v-.311c0-.104.004-.208.01-.311l-.01-.02a.06.06 0 00-.02-.042.163.163 0 00-.032-.042c-.007-.014-.017-.02-.03-.02a.08.08 0 00-.032.01l-.031.03a.12.12 0 00-.02.032l-.021.041-1.296 2.612v.02c0 .008-.007.018-.02.032a.12.12 0 01-.032.02.222.222 0 01-.072.042.335.335 0 01-.125.02.719.719 0 01-.145-.02 1.678 1.678 0 01-.207-.062h-.041c-.007-.007-.014-.01-.021-.01a1.302 1.302 0 01-.311-.094c-.062-.041-.093-.107-.093-.197a.61.61 0 01.02-.134 8.81 8.81 0 01.073-.187 2.78 2.78 0 01.124-.249.23.23 0 01.031-.072.406.406 0 00.031-.083c.215-.38.488-.898.82-1.555.33-.663.673-1.371 1.025-2.124l.166-.373a16.98 16.98 0 00.332-.705c.055-.117.107-.231.155-.342a1.003 1.003 0 01.207-.29.1.1 0 01.052-.02.17.17 0 01.052-.011c.02 0 .045.007.073.02a1.17 1.17 0 01.321.145c.076.049.155.108.238.177.028.02.049.041.062.062a.126.126 0 01.042.041v.031c.007.007.01.014.01.021 0 .02-.007.045-.02.073a.736.736 0 01-.032.093l-.767 1.679-.01.01c0 .007-.003.014-.01.021h-.01v.01l-.011.01v.011a.402.402 0 00-.02.052v.041c0 .021.003.038.01.052.014.014.027.02.041.02a.092.092 0 00.042-.01l.062-.02h.02l.021-.02c.249-.167.48-.34.695-.52.214-.179.425-.372.632-.58.186-.186.373-.386.56-.6.193-.222.4-.457.621-.705l.01-.01a.163.163 0 01.032-.042.13.13 0 01.051-.031.111.111 0 01.063-.02c.034 0 .065.01.093.03.034.02.069.055.104.104.076.11.13.204.165.28.042.069.06.138.052.207a.341.341 0 01-.01.083c0 .02-.007.048-.02.083a1.013 1.013 0 01-.135.249c-.077.103-.16.21-.25.32-.09.104-.182.211-.28.322-.151.166-.31.328-.476.487a9.734 9.734 0 01-.933.808 8.864 8.864 0 01-.445.301l-.042.02a.417.417 0 00-.062.053.1.1 0 00-.041.062c-.007.007-.01.017-.01.03v.073zM49.264.788c.152 0 .27.055.353.165.09.111.148.232.176.363.007.042.01.083.01.125.007.041.01.079.01.114l-.02.082a.12.12 0 01-.02.063.218.218 0 01-.136.124.688.688 0 01-.217.031l-.342.02c-.09 0-.17.004-.239.011a.986.986 0 00-.3.042.155.155 0 00-.104.093.026.026 0 01-.01.02v.011a40.73 40.73 0 00-.881 1.679 31.318 31.318 0 00-1.12 2.612c-.117.331-.207.576-.269.735a56.798 56.798 0 01-.135.228.492.492 0 01-.103.125.193.193 0 01-.125.041.48.48 0 01-.093-.01.726.726 0 01-.103-.052 227.45 227.45 0 00-.146-.083 1.652 1.652 0 01-.114-.083 1.018 1.018 0 01-.217-.197.422.422 0 01-.073-.248l.021-.146a1.71 1.71 0 01.114-.29l.083-.145.29-.642c.097-.215.194-.432.29-.653.166-.36.332-.715.498-1.068.172-.359.345-.715.518-1.067.055-.097.104-.183.145-.26l.104-.207a.24.24 0 00.02-.082.285.285 0 00.01-.063c0-.041-.01-.069-.03-.083-.021-.02-.056-.03-.104-.03a.923.923 0 00-.176.02 1.25 1.25 0 00-.239.052.092.092 0 00-.041.01.08.08 0 00-.031.01l-.104.021a.34.34 0 01-.083.01c-.152 0-.259-.048-.32-.144a.503.503 0 01-.084-.311V1.7a3.65 3.65 0 01.02-.145.82.82 0 01.032-.125.495.495 0 01.135-.186.542.542 0 01.228-.135 7.851 7.851 0 011.45-.26c.463-.04.875-.061 1.234-.061h.238zm2.979 3.005c.117.028.193.062.228.104.041.034.062.08.062.134a.23.23 0 01-.01.063.171.171 0 01-.01.051.08.08 0 01-.011.032v.03a.12.12 0 00-.02.032v.02a3.428 3.428 0 01-.198.374.357.357 0 01-.114.093.335.335 0 01-.124.02h-.042a4.38 4.38 0 00-.414-.02 6.365 6.365 0 00-.353-.01c-.082 0-.162.003-.238.01h-.228a31.92 31.92 0 00-.238.02c-.076 0-.156.004-.239.01a3.54 3.54 0 00-.373.042l-.342.063a9.42 9.42 0 00-.394.082c-.117.021-.22.032-.31.032h-.042c-.069 0-.12-.021-.155-.063a.294.294 0 01-.042-.165c0-.049.007-.097.02-.146.015-.055.029-.114.042-.176a.08.08 0 00.01-.03.09.09 0 01.011-.042v-.021c0-.007.004-.014.01-.02 0-.021.004-.039.01-.053l.022-.062a.08.08 0 00.01-.03l.02-.042a.532.532 0 01.104-.114.402.402 0 01.145-.094c.097-.041.204-.076.322-.103.124-.028.245-.052.362-.073.208-.027.405-.045.591-.052.187-.013.321-.02.404-.02h.249c.283 0 .504.01.663.03.16.015.308.035.446.063l.083.02a.34.34 0 01.083.011zm1.987-1.586h-.021a.304.304 0 00-.073.01h-.062a.092.092 0 01-.041.011h-.031l-.104.02a.385.385 0 01-.093.011h-.052a79.89 79.89 0 01-.041-.02.195.195 0 01-.063-.01l-.041-.042-.02-.042a.144.144 0 01-.011-.062.53.53 0 01.01-.104.95.95 0 01.052-.124l.041-.083c.014-.034.028-.065.042-.093l.041-.083a.277.277 0 01.052-.073c.028-.048.052-.093.073-.134.027-.042.052-.076.072-.104a.825.825 0 01.373-.31.818.818 0 01.125-.032 1.23 1.23 0 01.134-.031c.166-.014.329-.024.488-.031l.497-.042.891-.041c.304-.02.619-.035.943-.041h.114c.173.006.332.044.477.114.145.062.214.152.207.269a.341.341 0 00-.01.083v.083l-.02.145a.57.57 0 01-.042.145.12.12 0 00-.021.031.092.092 0 01-.01.042.334.334 0 00-.042.051.34.34 0 01-.052.042 1.101 1.101 0 00-.134.228c-.056.124-.128.29-.218.497-.11.256-.26.584-.446.985-.18.4-.37.829-.57 1.285a.406.406 0 01-.03.083.57.57 0 01-.032.072c-.055.139-.114.28-.176.425l-.166.436c-.096.234-.19.473-.28.715-.083.235-.162.463-.238.684l-.104.248-.02.042a.118.118 0 00-.021.03.365.365 0 01-.093.125.14.14 0 01-.104.042.263.263 0 01-.124-.042 1.527 1.527 0 01-.176-.093c-.07-.041-.132-.08-.187-.114a1.37 1.37 0 01-.135-.114.42.42 0 01-.114-.145.447.447 0 01-.03-.176c0-.104.027-.239.082-.404.062-.173.156-.408.28-.705l.394-.923c.034-.096.2-.428.497-.994.297-.567.632-1.258 1.005-2.073-.172 0-.345.01-.518.03l-.487.063-.228.042-.218.02a3.41 3.41 0 00-.155.311l-.197.467-.611 1.45-.166.394-.176.394c-.09.207-.183.415-.28.622-.097.2-.194.397-.29.59a3.24 3.24 0 01-.156.312c-.048.096-.1.193-.155.29-.11.172-.214.314-.311.425-.097.103-.19.155-.28.155a.35.35 0 01-.166-.052.935.935 0 01-.166-.166 3.809 3.809 0 01-.331-.383.538.538 0 01-.093-.26c0-.02.003-.04.01-.061a.387.387 0 01.02-.052c.042-.11.139-.242.29-.394.16-.152.34-.394.54-.725a21.328 21.328 0 001.202-2.435l.083-.229a8.168 8.168 0 00.114-.259.09.09 0 00.01-.041 1.234 1.234 0 01.072-.176zm7.117-.321c-.096 0-.2.004-.31.01-.104 0-.222.01-.353.032a.583.583 0 00-.176.02.29.29 0 00-.114.073.117.117 0 00-.041.041 2.827 2.827 0 00-.363.529c-.07.11-.139.224-.208.342a18.083 18.083 0 00-.217.425l-.02.062-.022.041v.021c0 .02.007.038.021.052a.27.27 0 00.083.01c.09-.007.173-.01.249-.01.083-.007.155-.01.217-.01.242 0 .401.03.477.093.083.055.124.17.124.342a.958.958 0 01-.01.135c0 .041-.003.09-.01.145v.02c-.049.104-.19.177-.425.218a6.027 6.027 0 01-.746.062h-.363a.196.196 0 00-.062.01.092.092 0 00-.042.011l-.03.031a.34.34 0 00-.042.052c-.049.09-.121.228-.218.414-.09.187-.2.432-.332.736l-.176.425-.01.01v.052c0 .035.014.063.041.083a.4.4 0 00.145.021c.104 0 .253-.017.446-.052.2-.041.456-.097.767-.166a.747.747 0 01.155-.041.465.465 0 01.125-.02c.11 0 .19.034.238.103a.345.345 0 01.083.238c0 .02-.003.042-.01.062v.052l-.021.062a.826.826 0 01-.145.26.562.562 0 01-.207.145l-.25.082-.341.114c-.124.028-.252.06-.383.094a3.805 3.805 0 01-.405.083c-.103.02-.21.038-.321.051a4.52 4.52 0 01-.3.01c-.215 0-.401-.03-.56-.092a.5.5 0 01-.29-.353.234.234 0 01-.042-.103.894.894 0 01-.01-.146c0-.18.041-.421.124-.725.09-.304.21-.636.363-.995.048-.117.1-.235.155-.352l.166-.353c.132-.262.27-.521.415-.777.152-.256.304-.494.456-.715l.145-.207.155-.197.01-.031a.08.08 0 00.011-.031c.007-.014.007-.025 0-.031v-.021c0-.007-.007-.014-.02-.02a.692.692 0 01-.115-.229 1.419 1.419 0 01-.062-.342v-.083c0-.055.003-.107.01-.155a2.8 2.8 0 01.042-.135l.02-.02.021-.042.01-.01c0-.007.004-.01.011-.01.007-.008.01-.015.01-.022l.021-.02c.11-.118.335-.204.674-.26.338-.062.819-.096 1.44-.103.083 0 .149.003.197.01.049 0 .097.01.145.031a.225.225 0 01.083.042c.028.02.059.045.093.072a.903.903 0 01.197.228.955.955 0 01.145.28v.031c.008.007.01.014.01.021v.062a.044.044 0 010 .042v.062a.09.09 0 01-.01.041c-.006.028-.027.049-.062.062a.259.259 0 01-.114.021h-.342zM65.64.788c.152 0 .27.055.352.165.09.111.148.232.176.363.007.042.01.083.01.125.007.041.01.079.01.114l-.02.082a.12.12 0 01-.02.063.218.218 0 01-.135.124.689.689 0 01-.218.031l-.342.02c-.09 0-.17.004-.238.011a.986.986 0 00-.3.042.155.155 0 00-.105.093.026.026 0 01-.01.02v.011a40.737 40.737 0 00-.88 1.679 31.535 31.535 0 00-1.12 2.612c-.117.331-.207.576-.27.735a56.798 56.798 0 00-.135.228.493.493 0 01-.103.125.193.193 0 01-.124.041.481.481 0 01-.093-.01.725.725 0 01-.104-.052l-.145-.083a1.605 1.605 0 01-.114-.083 1.015 1.015 0 01-.218-.197.422.422 0 01-.072-.248l.02-.146c.014-.055.035-.114.063-.176a1.52 1.52 0 01.134-.259l.29-.642c.097-.215.194-.432.29-.653.166-.36.332-.715.498-1.068.173-.359.346-.715.518-1.067a8.76 8.76 0 00.145-.26l.104-.207a.24.24 0 00.02-.082.285.285 0 00.011-.063c0-.041-.01-.069-.031-.083-.02-.02-.055-.03-.104-.03a.922.922 0 00-.176.02 1.23 1.23 0 00-.238.052.092.092 0 00-.042.01.08.08 0 00-.03.01l-.104.021a.34.34 0 01-.083.01c-.152 0-.26-.048-.322-.144a.504.504 0 01-.082-.311V1.7a3.65 3.65 0 01.02-.145.832.832 0 01.031-.125.496.496 0 01.135-.186.54.54 0 01.228-.135 7.85 7.85 0 011.451-.26c.463-.04.874-.061 1.233-.061h.239zm3.237 1.098a5 5 0 00-.31.01c-.104 0-.222.01-.353.032a.583.583 0 00-.176.02.292.292 0 00-.114.073.117.117 0 00-.042.041 2.802 2.802 0 00-.363.529c-.068.11-.138.224-.207.342a17.57 17.57 0 00-.217.425l-.021.062-.02.041v.021c0 .02.006.038.02.052a.27.27 0 00.083.01c.09-.007.173-.01.249-.01a2.66 2.66 0 01.217-.01c.242 0 .4.03.477.093.083.055.124.17.124.342a.958.958 0 01-.01.135c0 .041-.004.09-.01.145v.02c-.049.104-.19.177-.425.218a6.027 6.027 0 01-.746.062h-.363a.195.195 0 00-.062.01.092.092 0 00-.042.011l-.031.031a.34.34 0 00-.041.052c-.049.09-.121.228-.218.414-.09.187-.2.432-.332.736l-.176.425-.01.01v.052c0 .035.014.063.041.083a.4.4 0 00.145.021c.104 0 .252-.017.446-.052.2-.041.456-.097.767-.166a.746.746 0 01.155-.041.464.464 0 01.125-.02c.11 0 .19.034.238.103a.345.345 0 01.083.238c0 .02-.004.042-.01.062v.052l-.021.062a.823.823 0 01-.145.26.56.56 0 01-.207.145l-.25.082-.341.114c-.125.028-.252.06-.384.094a3.805 3.805 0 01-.404.083 4.45 4.45 0 01-.321.051 4.52 4.52 0 01-.3.01c-.215 0-.401-.03-.56-.092a.5.5 0 01-.29-.353.233.233 0 01-.042-.103.894.894 0 01-.01-.146c0-.18.041-.421.124-.725.09-.304.21-.636.363-.995.048-.117.1-.235.155-.352l.166-.353c.131-.262.27-.521.415-.777.152-.256.304-.494.456-.715l.145-.207.155-.197.01-.031a.08.08 0 00.01-.031c.008-.014.008-.025 0-.031v-.021c0-.007-.006-.014-.02-.02a.694.694 0 01-.114-.229 1.424 1.424 0 01-.062-.342v-.083c0-.055.003-.107.01-.155a2.8 2.8 0 01.042-.135l.02-.02.021-.042.01-.01c0-.007.004-.01.01-.01.008-.008.011-.015.011-.022l.021-.02c.11-.118.335-.204.674-.26.338-.062.818-.096 1.44-.103.083 0 .149.003.197.01.049 0 .097.01.145.031a.225.225 0 01.083.042c.028.02.059.045.093.072a.903.903 0 01.197.228.98.98 0 01.145.28v.031c.007.007.01.014.01.021v.062a.044.044 0 010 .042v.062a.092.092 0 01-.01.041c-.007.028-.027.049-.062.062a.258.258 0 01-.114.021h-.342zm-.578 4.757c.09-.214.172-.414.248-.601l.218-.55a28.27 28.27 0 01.632-1.398c.076-.152.152-.3.228-.446.076-.152.152-.3.228-.446a8.88 8.88 0 01.197-.352c.07-.124.142-.249.218-.373l.062-.135a.402.402 0 01.02-.052.115.115 0 00.01-.051.092.092 0 00.011-.042v-.052a.657.657 0 00-.03-.186 1.9 1.9 0 00-.094-.29.092.092 0 00-.01-.042v-.041l-.021-.063v-.124c.007-.007.01-.014.01-.02a.16.16 0 01.031-.042.406.406 0 01.052-.062.676.676 0 01.073-.042.406.406 0 01.093-.052c.304-.11.584-.19.84-.238a3.83 3.83 0 01.704-.072c.553 0 .964.134 1.233.404.277.262.425.552.446.87v.186c-.007.09-.02.18-.041.27a1.74 1.74 0 01-.083.249c-.125.297-.332.594-.622.891-.29.297-.619.591-.985.881a9.386 9.386 0 01-.663.456c-.18.104-.325.156-.435.156a.278.278 0 01-.166-.052.522.522 0 01-.124-.166.593.593 0 00-.094-.176c-.027-.049-.058-.073-.093-.073-.02 0-.041.014-.062.042-.02.027-.049.076-.083.145l-.249.57c-.069.173-.135.342-.197.508l-.02.041a.304.304 0 01-.59 1.347.209.209 0 01-.136.042.512.512 0 01-.155-.031 251.92 251.92 0 00-.208-.104c-.193-.028-.328-.066-.404-.114-.076-.048-.114-.11-.114-.186 0-.042.007-.083.02-.125a2.05 2.05 0 01.063-.176.12.12 0 01.02-.031c0-.007.004-.014.011-.02a.08.08 0 00.01-.032zm3.16-4.311l-.072.176a.262.262 0 01-.031.062.402.402 0 01-.02.052c-.022.041-.042.083-.063.124-.02.035-.048.08-.083.135-.11.173-.204.325-.28.456a3.28 3.28 0 00-.176.342c-.02.048-.038.093-.052.135a.481.481 0 00-.01.093c0 .035.01.062.03.083.022.014.046.02.073.02.07 0 .173-.034.311-.103.145-.076.318-.18.519-.31a5.41 5.41 0 00.683-.623c.16-.18.263-.328.311-.445a.721.721 0 00.031-.094.341.341 0 00.01-.082.213.213 0 00-.134-.208.68.68 0 00-.342-.072h-.135a.34.34 0 01-.082.01h-.073a.115.115 0 00-.052.01h-.041a.605.605 0 00-.156.032.229.229 0 00-.093.072.262.262 0 01-.031.062.695.695 0 00-.042.073zm3.008.083l.02-.042v-.02a.08.08 0 00.011-.032.026.026 0 00.01-.02V2.27c0-.021-.003-.035-.01-.042-.007-.014-.02-.024-.041-.03a.877.877 0 01-.322-.094c-.083-.055-.128-.2-.134-.435l.02-.125a.544.544 0 01.031-.114c.014-.034.028-.065.042-.093l.062-.083a.376.376 0 01.083-.093c.028-.028.045-.042.052-.042.186-.083.407-.152.663-.207a7.94 7.94 0 01.798-.145c.27-.035.532-.059.788-.073.255-.02.476-.03.663-.03.02 0 .041.003.062.01.028 0 .055.003.083.01a.5.5 0 01.238.166c.076.076.115.193.115.352v.052a.08.08 0 00-.01.031v.031l-.022.042v.041l-.01.01v.01a.592.592 0 01-.031.104.37.37 0 01-.031.094.614.614 0 01-.093.166c-.035.041-.07.062-.104.062h-.135c-.048 0-.097-.004-.145-.01h-.3c-.125 0-.256.003-.394.01-.132.007-.266.02-.404.041l-.104.02a.527.527 0 00-.104.011l-.083.145c-.02.049-.041.1-.062.156-.048.117-.103.259-.166.425a41.366 41.366 0 01-.259.663v.02l-.02.042v.042c0 .034.01.065.03.093.028.028.073.041.135.041a.302.302 0 00.073-.01c.028-.007.059-.014.093-.02a.08.08 0 01.031-.011.092.092 0 01.042-.01h.052l.062-.021h.124c.02 0 .041.003.062.01a.98.98 0 01.487.207c.16.111.256.246.29.405a.328.328 0 01.021.124l.021.124v.125a2.206 2.206 0 01-.083.58l-.062.207a3.125 3.125 0 01-.477.88c-.166.222-.36.423-.58.602a5.8 5.8 0 01-.808.55c-.215.117-.401.176-.56.176a.616.616 0 01-.311-.083 1.15 1.15 0 01-.29-.29.162.162 0 00-.042-.031.092.092 0 00-.041-.01.026.026 0 00-.02.01.03.03 0 00-.022.01c-.006 0-.01.003-.01.01l-.01.01-.25.322a.068.068 0 01-.03.031.402.402 0 01-.052.02h-.042c-.007-.006-.014-.01-.021-.01a1.074 1.074 0 01-.28-.155 1.327 1.327 0 01-.197-.197.412.412 0 01-.062-.052l-.041-.062-.01-.01a.402.402 0 01-.022-.052.341.341 0 01-.031-.145c0-.02.004-.042.01-.062l.021-.083v-.01l.021-.021v-.01l.01-.011c.125-.235.284-.546.477-.933a41.25 41.25 0 00.674-1.368 806.902 806.902 0 00.487-1.047c.138-.297.263-.57.373-.818zm1.14 2.497V4.84c0-.131-.041-.225-.124-.28-.076-.055-.194-.083-.353-.083h-.134a.23.23 0 01-.073.01h-.062a.281.281 0 00-.135.042c-.028.014-.052.045-.073.093l-.715 1.379-.02.062c0 .02.003.041.01.062 0 .062.017.107.052.135a.193.193 0 00.124.041.733.733 0 00.3-.083c.125-.062.25-.141.374-.238.159-.118.31-.256.456-.415a1.78 1.78 0 00.321-.508.092.092 0 00.01-.041.123.123 0 01.021-.031v-.042a.12.12 0 01.021-.03zm5.86-3.865a.765.765 0 01.083-.135.545.545 0 01.103-.083.575.575 0 01.073-.031.304.304 0 01.073-.01c.062 0 .12.013.176.041a.554.554 0 01.145.104.12.12 0 01.02.03.12.12 0 01.032.022.461.461 0 01.093.186.958.958 0 01.041.3c0 .077-.01.16-.03.25a1.384 1.384 0 01-.073.258l-.02.042a6.994 6.994 0 01-.27.414 18.225 18.225 0 01-.819 1.15c-.187.243-.377.481-.57.716-.049.062-.1.128-.156.197-.048.062-.1.124-.155.186-.546.657-1.05 1.23-1.513 1.72-.456.491-.75.806-.881.944a3.796 3.796 0 01-.383.331c-.097.076-.184.114-.26.114a.08.08 0 01-.03-.01h-.032a.539.539 0 01-.093-.062 1.034 1.034 0 01-.104-.093 1.22 1.22 0 01-.259-.322.47.47 0 01-.062-.248v-.021c0-.014.004-.024.01-.031v-.02a.08.08 0 00.01-.032.277.277 0 01.053-.073.677.677 0 01.062-.072.16.16 0 01.041-.031.123.123 0 00.031-.02c.228-.18.44-.357.633-.53.2-.172.39-.341.57-.507.082-.09.165-.176.248-.26.09-.09.173-.176.249-.258.007-.007.01-.014.01-.021a.12.12 0 00.021-.031h.01c0-.007.004-.014.01-.021l.022-.041a.12.12 0 01.02-.032.092.092 0 00.01-.041.17.17 0 00.011-.041.112.112 0 00-.031-.083.14.14 0 00-.093-.052.46.46 0 01-.3-.27c-.063-.145-.094-.352-.094-.621.007-.277.038-.619.093-1.026.055-.415.131-.912.228-1.493a2.03 2.03 0 01.02-.093l.022-.083a.704.704 0 01.259-.28c.124-.09.324-.176.6-.259h.021a.092.092 0 00.042-.01h.062c.076 0 .135.017.176.052.042.034.062.11.062.228a.698.698 0 01-.01.114.61.61 0 01-.02.145c-.139.518-.239.988-.301 1.41a7.56 7.56 0 00-.093 1.077c0 .069.013.12.041.155a.128.128 0 00.104.052h.041a.263.263 0 00.062-.03.23.23 0 00.073-.032l.052-.052.145-.186.145-.187a16.2 16.2 0 00.684-1.005c.242-.373.528-.84.86-1.4zm-.68 5.596l.25-.601c.075-.193.148-.377.217-.55a28.27 28.27 0 01.632-1.398c.076-.152.152-.3.228-.446.076-.152.152-.3.228-.446a8.88 8.88 0 01.197-.352c.07-.124.142-.249.218-.373l.062-.135a.402.402 0 01.02-.052.115.115 0 00.01-.051.092.092 0 00.011-.042v-.052a.657.657 0 00-.03-.186 1.9 1.9 0 00-.094-.29.092.092 0 00-.01-.042v-.041l-.021-.063v-.124c.007-.007.01-.014.01-.02a.162.162 0 01.031-.042.413.413 0 01.052-.062.676.676 0 01.073-.042.404.404 0 01.093-.052c.304-.11.584-.19.84-.238a3.83 3.83 0 01.704-.072c.553 0 .964.134 1.233.404.277.262.425.552.446.87v.186c-.007.09-.02.18-.041.27a1.74 1.74 0 01-.083.249c-.125.297-.332.594-.622.891-.29.297-.619.591-.985.881a9.997 9.997 0 01-.663.456c-.18.104-.325.156-.435.156a.278.278 0 01-.166-.052.522.522 0 01-.124-.166.593.593 0 00-.094-.176c-.027-.049-.059-.073-.093-.073-.02 0-.041.014-.062.042-.02.027-.049.076-.083.145l-.249.57c-.069.173-.135.342-.197.508l-.02.041a.305.305 0 01-.59 1.347.21.21 0 01-.136.042.512.512 0 01-.155-.031l-.208-.104c-.193-.028-.328-.066-.404-.114-.076-.048-.114-.11-.114-.186 0-.042.007-.083.02-.125a2.05 2.05 0 01.063-.176.12.12 0 01.02-.031c0-.007.004-.014.011-.02a.08.08 0 00.01-.032zm3.161-4.311l-.072.176a.262.262 0 01-.031.062.402.402 0 01-.02.052c-.022.041-.042.083-.063.124-.02.035-.049.08-.083.135-.11.173-.204.325-.28.456a3.28 3.28 0 00-.176.342c-.02.048-.038.093-.052.135a.481.481 0 00-.01.093c0 .035.01.062.03.083.022.014.046.02.073.02.07 0 .173-.034.311-.103.145-.076.318-.18.519-.31a5.41 5.41 0 00.684-.623c.158-.18.262-.328.31-.445a.737.737 0 00.032-.094.341.341 0 00.01-.082.213.213 0 00-.135-.208.68.68 0 00-.342-.072h-.135a.34.34 0 01-.082.01h-.073a.115.115 0 00-.052.01h-.041a.605.605 0 00-.156.032.229.229 0 00-.093.072.262.262 0 01-.031.062.677.677 0 00-.042.073zM89.112.705h.01c.235 0 .415.055.539.166.131.11.197.262.197.456a.68.68 0 01-.02.155 1.87 1.87 0 01-.032.155l-.031.052a.197.197 0 01-.093.104.715.715 0 01-.218.02l-.88.032a.424.424 0 00-.136.02.235.235 0 00-.124.073.68.68 0 00-.083.104.67.67 0 00-.083.145c-.028.062-.076.166-.145.31-.062.146-.131.301-.207.467a.12.12 0 01-.02.031v.031c-.035.07-.07.142-.105.218l-.082.207c-.049.11-.09.21-.125.3-.034.09-.059.15-.072.177l-.26.622c-.18.428-.376.874-.59 1.337-.214.456-.439.925-.674 1.409-.034.09-.08.149-.135.176a.31.31 0 01-.165.052.516.516 0 01-.239-.073 7.158 7.158 0 01-.31-.176l-.021-.02-.042-.042a1.414 1.414 0 00-.052-.093 1.276 1.276 0 00-.041-.093.592.592 0 01-.031-.104 2.03 2.03 0 00-.02-.093.341.341 0 01-.011-.083v-.042a.387.387 0 01.02-.052l.01-.01v-.01h.011c.062-.104.121-.208.176-.311l.166-.332c.346-.65.66-1.288.943-1.917.284-.629.532-1.188.746-1.679l.01-.02a.653.653 0 00.042-.125.48.48 0 00.01-.093c0-.028-.006-.049-.02-.063a.13.13 0 00-.031-.051h-.02c-.008-.007-.015-.01-.022-.01h-.01l-.02.01c-.07 0-.118-.028-.146-.083a.63.63 0 01-.03-.218c0-.062.002-.131.01-.207.013-.076.024-.16.03-.249v-.01c0-.007.004-.014.01-.021v-.02c.05-.118.212-.211.488-.28.276-.077.577-.132.902-.166a16.313 16.313 0 011.026-.083z" fill="#11D081"/><path d="M123.1 38c9.062 0 16.409-7.347 16.409-16.41 0-9.062-7.347-16.408-16.409-16.408-9.063 0-16.41 7.346-16.41 16.409 0 9.062 7.347 16.409 16.41 16.409z" fill="#F22B2B"/><path d="M124.497 9.68c-1.149.684-2.416.212-2.86 0-5.28-2.52-5.978-.999-5.757 2.71l.477 21.069c.415 5.293 3.74-3.49 5.28-6.108 1.232-2.095 2.42-1.309 2.86-.437.126.25 3.645 6.388 3.741 6.545 1.796 2.958 1.98.218 1.98-.655V13.607c.44-7.634-2.858-5.629-5.721-3.926z" fill="#fff"/><path d="M129.026 16.854h-5.184v-5.518h-1.538v5.518h-5.184v1.636h5.184v5.517h1.538V18.49h5.184v-1.636z" fill="#00B76B"/></svg>